<svg xmlns="http://www.w3.org/2000/svg" viewBox="0 0 512 512">
  <rect width="512" height="512" fill="#c60b1e"/>
  <rect width="512" height="256" y="128" fill="#ffc400"/>
  <path fill="#c60b1e" d="M144 224v48h32v-48z"/>
  <g fill="#ffc400">
    <path d="M144 208h32v16h-32z"/>
    <path d="M144 272h32v16h-32z"/>
  </g>
  <path d="M96 192c0 14.3 6.1 27.2 15.9 36.3 9.8 9 23.1 14.7 37.7 14.7h16.8c14.6 0 27.9-5.6 37.7-14.7 9.8-9 15.9-22 15.9-36.3 0-28.4-24.9-51-53.7-51h-16.8c-28.8 0-53.7 22.6-53.7 51z" fill="#c60b1e"/>
  <path d="M106.7 192c0 10.7 4.7 20.4 12.3 27.6 7.6 7.1 18.1 11.4 29.6 11.4h16.8c11.5 0 22-4.3 29.6-11.4 7.6-7.1 12.3-16.8 12.3-27.6 0-21.3-19.7-39-41.9-39h-16.8c-22.2 0-41.9 17.7-41.9 39z" fill="#ffc400"/>
  <path d="M144 169h32v46h-32z" fill="#c60b1e"/>
  <g fill="#c60b1e">
    <circle cx="136" cy="192" r="8"/>
    <circle cx="184" cy="192" r="8"/>
  </g>
</svg> 